<svg height="512" viewBox="0 0 64 64" width="512" xmlns="http://www.w3.org/2000/svg"><g id="Smart_Light" data-name="Smart Light"><circle cx="47" cy="47" fill="#c6c5ca" r="14"/><path d="m61 47a14 14 0 0 1 -14 14 14.6 14.6 0 0 1 -2-.14 14 14 0 0 0 0-27.72 14.6 14.6 0 0 1 2-.14 14 14 0 0 1 14 14z" fill="#898890"/><path d="m18 27h-6a10.607 10.607 0 0 1 -5-9 11 11 0 0 1 22 0 10.607 10.607 0 0 1 -5 9z" fill="#ffcd00"/><path d="m29 18a10.607 10.607 0 0 1 -5 9h-4a10.607 10.607 0 0 0 5-9 11 11 0 0 0 -9-10.82 11.017 11.017 0 0 1 13 10.82z" fill="#ddb200"/><path d="m24 27v4h-2-8-2v-4h6z" fill="#a78966"/><path d="m20 27h4v4h-4z" fill="#806749"/><path d="m22 31v2a4 4 0 0 1 -8 0v-2z" fill="#806749"/><path d="m22 31v2a3.994 3.994 0 0 1 -6 3.46 3.98 3.98 0 0 0 2-3.46v-2z" fill="#5f4d37"/><circle cx="47" cy="47" fill="#ff3051" r="8"/><path d="m55 47a8 8 0 0 1 -8 8 8.239 8.239 0 0 1 -2-.25 8.005 8.005 0 0 0 0-15.5 8.239 8.239 0 0 1 2-.25 8 8 0 0 1 8 8z" fill="#cd2a00"/><path d="m17 2h2v2h-2z"/><path d="m32 17h2v2h-2z"/><path d="m27.607 27.607h2v2h-2z" transform="matrix(.707 -.707 .707 .707 -11.849 28.606)"/><path d="m6.394 27.607h2v2h-2z" transform="matrix(.707 -.707 .707 .707 -18.062 13.607)"/><path d="m2 17h2v2h-2z"/><path d="m6.394 6.394h2v2h-2z" transform="matrix(.707 -.707 .707 .707 -3.063 7.394)"/><path d="m27.607 6.394h2v2h-2z" transform="matrix(.707 -.707 .707 .707 3.151 22.393)"/><path d="m47 32a15 15 0 1 0 15 15 15.017 15.017 0 0 0 -15-15zm0 28a13 13 0 1 1 13-13 13.015 13.015 0 0 1 -13 13z"/><path d="m51 38.943-.887 1.793a7 7 0 1 1 -6.232 0l-.881-1.793a9 9 0 1 0 8.006 0z"/><path d="m46 37h2v8h-2z"/><path d="m42.293 17.707 1.414-1.414-2.293-2.293h3.586a1 1 0 0 1 1 1v15h2v-15a3 3 0 0 0 -3-3h-3.586l2.293-2.293-1.414-1.414-4 4a1 1 0 0 0 0 1.414z"/><path d="m22.707 47.293-1.414 1.414 2.293 2.293h-3.586a1 1 0 0 1 -1-1v-12.1a5.009 5.009 0 0 0 4-4.9v-1h1a1 1 0 0 0 1-1v-3.5a11.555 11.555 0 0 0 5-9.5 12 12 0 0 0 -24 0 11.555 11.555 0 0 0 5 9.5v3.5a1 1 0 0 0 1 1h1v1a5.009 5.009 0 0 0 4 4.9v12.1a3 3 0 0 0 3 3h3.586l-2.293 2.293 1.414 1.414 4-4a1 1 0 0 0 0-1.414zm.293-17.293h-10v-2h10zm-15-12a10 10 0 0 1 20 0 9.614 9.614 0 0 1 -4.326 8h-4.674v-6h3v-2h-8v2h3v6h-4.674a9.614 9.614 0 0 1 -4.326-8zm7 15v-1h6v1a3 3 0 0 1 -6 0z"/></g></svg>