<svg id="Capa_1" enable-background="new 0 0 512 512" height="512" viewBox="0 0 512 512" width="512" xmlns="http://www.w3.org/2000/svg"><g><path d="m256 512c-68.38 0-132.667-26.629-181.02-74.98-48.351-48.353-74.98-112.64-74.98-181.02s26.629-132.667 74.98-181.02c48.353-48.351 112.64-74.98 181.02-74.98s132.667 26.629 181.02 74.98c48.351 48.353 74.98 112.64 74.98 181.02s-26.629 132.667-74.98 181.02c-48.353 48.351-112.64 74.98-181.02 74.98z" fill="#ff6446"/><path d="m256 0v512c68.38 0 132.667-26.629 181.02-74.98 48.351-48.353 74.98-112.64 74.98-181.02s-26.629-132.667-74.98-181.02c-48.353-48.351-112.64-74.98-181.02-74.98z" fill="#ff320a"/><path d="m256 451c-107.523 0-195-87.477-195-195s87.477-195 195-195 195 87.477 195 195-87.477 195-195 195z" fill="#ff320a"/><path d="m451 256c0-107.523-87.477-195-195-195v390c107.523 0 195-87.477 195-195z" fill="#d21900"/><path d="m256 371c-63.411 0-115-51.589-115-115 0-36.485 16.836-70.02 46.19-92.006 6.63-4.966 16.032-3.617 20.998 3.014s3.617 16.032-3.014 20.998c-21.718 16.266-34.174 41.05-34.174 67.994 0 46.869 38.131 85 85 85s85-38.131 85-85c0-26.944-12.456-51.728-34.175-67.994-6.631-4.966-7.98-14.367-3.014-20.998s14.368-7.98 20.998-3.014c29.355 21.986 46.191 55.521 46.191 92.006 0 63.411-51.589 115-115 115z" fill="#dcf5fa"/><path d="m256 211c-8.284 0-15-6.716-15-15v-60c0-8.284 6.716-15 15-15s15 6.716 15 15v60c0 8.284-6.716 15-15 15z" fill="#dcf5fa"/><g fill="#bedce6"><path d="m371 256c0-36.485-16.836-70.02-46.19-92.006-6.63-4.966-16.032-3.617-20.998 3.014s-3.617 16.032 3.014 20.998c21.718 16.266 34.174 41.05 34.174 67.994 0 46.869-38.131 85-85 85v30c63.411 0 115-51.589 115-115z"/><path d="m271 196v-60c0-8.284-6.716-15-15-15v90c8.284 0 15-6.716 15-15z"/></g></g></svg>