<svg id="Capa_1" enable-background="new 0 0 510.122 510.122" height="512" viewBox="0 0 510.122 510.122" width="512" xmlns="http://www.w3.org/2000/svg" xmlns:xlink="http://www.w3.org/1999/xlink"><linearGradient id="SVGID_1_" gradientUnits="userSpaceOnUse" x1="-1.889" x2="551.201" y1="255.061" y2="255.061"><stop offset="0" stop-color="#a2e62e"/><stop offset=".7542" stop-color="#09a76d"/><stop offset="1" stop-color="#017b4e"/></linearGradient><linearGradient id="SVGID_2_" gradientUnits="userSpaceOnUse" x1="-8.282" x2="324.61" y1="255.069" y2="255.069"><stop offset="0" stop-color="#a2e62e"/><stop offset="1" stop-color="#02905d"/></linearGradient><linearGradient id="lg1"><stop offset="0" stop-color="#09a76d"/><stop offset="1" stop-color="#026841"/></linearGradient><linearGradient id="SVGID_3_" gradientUnits="userSpaceOnUse" x1="63.458" x2="475.887" xlink:href="#lg1" y1="255.061" y2="255.061"/><linearGradient id="SVGID_4_" gradientUnits="userSpaceOnUse" x1="199.061" x2="327.061" xlink:href="#lg1" y1="255.066" y2="255.066"/><linearGradient id="lg2"><stop offset="0" stop-color="#fff9df"/><stop offset=".593" stop-color="#ffe177"/><stop offset="1" stop-color="#feb137"/></linearGradient><linearGradient id="SVGID_5_" gradientUnits="userSpaceOnUse" x1="113.061" x2="399.061" xlink:href="#lg2" y1="262.591" y2="262.591"/><linearGradient id="SVGID_6_" gradientUnits="userSpaceOnUse" x1="113.061" x2="399.061" xlink:href="#lg2" y1="158.849" y2="158.849"/><g><g><g><g><circle cx="255.061" cy="255.061" fill="url(#SVGID_1_)" r="255"/><path d="m502.318 192.7c-30.852-122.325-145.302-201.482-266.979-191.899 105.96 8.449 199.521 83.108 226.959 191.899 34.441 136.557-48.34 275.177-184.897 309.618-14.231 3.589-28.483 5.887-42.639 7.002 27.043 2.156 54.893 0 82.659-7.002 136.557-34.441 219.338-173.061 184.897-309.618z" fill="url(#SVGID_2_)"/></g></g></g><circle cx="255.061" cy="255.061" fill="url(#SVGID_3_)" r="190.149"/><path d="m439.436 208.559c-23.439-92.933-111.584-152.451-204.21-142.62 76.921 8.219 144.167 63.229 164.19 142.62 25.682 101.828-36.046 205.195-137.874 230.877-8.895 2.243-17.801 3.805-26.666 4.746 21.739 2.323 44.249.913 66.686-4.746 101.828-25.682 163.556-129.049 137.874-230.877z" fill="url(#SVGID_4_)"/><g><path d="m324.461 126.004c-9.725-5.239-21.854-1.603-27.093 8.122-5.239 9.724-1.603 21.854 8.122 27.093 34.594 18.637 56.084 54.595 56.084 93.842 0 58.731-47.782 106.513-106.513 106.513s-106.513-47.781-106.513-106.513c0-39.247 21.49-75.205 56.084-93.842 9.724-5.239 13.36-17.369 8.122-27.093-5.239-9.725-17.368-13.36-27.093-8.122-47.565 25.625-77.113 75.076-77.113 129.057 0 80.787 65.726 146.513 146.513 146.513s146.513-65.726 146.513-146.513c0-53.981-29.548-103.432-77.113-129.057z" fill="url(#SVGID_5_)"/><path d="m255.061 220.561c11.046 0 20-8.954 20-20v-83.424c0-11.046-8.954-20-20-20s-20 8.954-20 20v83.424c0 11.046 8.954 20 20 20z" fill="url(#SVGID_6_)"/></g></g></svg>