<svg enable-background="new 0 0 24 24" height="512" viewBox="0 0 24 24" width="512" xmlns="http://www.w3.org/2000/svg"><g id="color_1_"><g><g><path d="m1 7.5c-.552 0-1-.447-1-1v-1.5c0-1.654 1.346-3 3-3h1.5c.552 0 1 .447 1 1s-.448 1-1 1h-1.5c-.551 0-1 .448-1 1v1.5c0 .553-.448 1-1 1z" fill="#00bcd4"/></g><g><path d="m23 7.5c-.552 0-1-.447-1-1v-1.5c0-.552-.449-1-1-1h-1.5c-.552 0-1-.447-1-1s.448-1 1-1h1.5c1.654 0 3 1.346 3 3v1.5c0 .553-.448 1-1 1z" fill="#00bcd4"/></g><g><path d="m4.5 22h-1.5c-1.654 0-3-1.346-3-3v-1.5c0-.553.448-1 1-1s1 .447 1 1v1.5c0 .552.449 1 1 1h1.5c.552 0 1 .447 1 1s-.448 1-1 1z" fill="#00bcd4"/></g><g><path d="m21 22h-1.5c-.552 0-1-.447-1-1s.448-1 1-1h1.5c.551 0 1-.448 1-1v-1.5c0-.553.448-1 1-1s1 .447 1 1v1.5c0 1.654-1.346 3-3 3z" fill="#00bcd4"/></g></g><path d="m12 5.934c-3.847 0-7.128 2.421-7.979 5.888-.028.117-.028.24 0 .357.851 3.467 4.132 5.888 7.979 5.888s7.128-2.421 7.979-5.888c.028-.117.028-.24 0-.357-.851-3.468-4.132-5.888-7.979-5.888z" fill="#607d8b"/><path d="m12 9c-1.654 0-3 1.346-3 3s1.346 3 3 3 3-1.346 3-3-1.346-3-3-3z" fill="#fafafa"/><path d="m12 5.934c-3.847 0-7.128 2.421-7.979 5.888-.028.117-.028.24 0 .357.851 3.467 4.132 5.888 7.979 5.888v-3.067c-1.654 0-3-1.346-3-3s1.346-3 3-3z" fill="#546d79"/><path d="m12 9c-1.654 0-3 1.346-3 3s1.346 3 3 3z" fill="#dadada"/><g fill="#00a4b9"><path d="m2.29 4.29c-.18.19-.29.43-.29.71v1.5c0 .55-.45 1-1 1s-1-.45-1-1v-1.5c0-.82.34-1.58.88-2.12z"/><path d="m21.71 4.29c-.19-.18-.43-.29-.71-.29h-1.5c-.55 0-1-.45-1-1s.45-1 1-1h1.5c.82 0 1.58.34 2.12.88z"/><path d="m21.71 19.71c.18-.19.29-.43.29-.71v-1.5c0-.55.45-1 1-1s1 .45 1 1v1.5c0 .82-.34 1.58-.88 2.12z"/><path d="m2.29 19.71c.19.18.43.29.71.29h1.5c.55 0 1 .45 1 1s-.45 1-1 1h-1.5c-.82 0-1.58-.34-2.12-.88z"/></g></g></svg>